<svg width="88" height="30" viewBox="0 0 88 30" fill="none" xmlns="http://www.w3.org/2000/svg">
<path d="M12.7217 1.18466C13.9914 0.451588 15.5558 0.451589 16.8255 1.18466L25.516 6.20214C26.7857 6.9352 27.5679 8.28997 27.5679 9.75611V19.7911C27.5679 21.2572 26.7857 22.612 25.516 23.345L16.8255 28.3625C15.5558 29.0956 13.9914 29.0956 12.7217 28.3625L4.03117 23.345C2.76146 22.612 1.97929 21.2572 1.97929 19.7911V9.75611C1.97929 8.28997 2.76146 6.9352 4.03117 6.20214L12.7217 1.18466Z" fill="white"/>
<path d="M36.4744 21.4622V7.4568H40.0003V18.2317H46.8159V21.4622H36.4744ZM53.7795 21.7182C51.9541 21.7182 50.4964 21.2126 49.4065 20.2015C48.3297 19.1772 47.7912 17.7983 47.7912 16.0649C47.7912 14.3314 48.3362 12.9526 49.4262 11.9283C50.5161 10.904 51.9672 10.3918 53.7795 10.3918C55.5917 10.3918 57.0362 10.904 58.1131 11.9283C59.203 12.9526 59.748 14.3314 59.748 16.0649C59.748 17.7983 59.203 19.1772 58.1131 20.2015C57.0362 21.2126 55.5917 21.7182 53.7795 21.7182ZM51.9672 17.9756C52.4269 18.4352 53.0309 18.665 53.7795 18.665C54.528 18.665 55.1255 18.4286 55.572 17.9559C56.0185 17.4831 56.2417 16.8528 56.2417 16.0649C56.2417 15.277 56.0119 14.6466 55.5523 14.1739C55.1058 13.688 54.5149 13.445 53.7795 13.445C53.0309 13.445 52.4269 13.688 51.9672 14.1739C51.5208 14.6466 51.2975 15.277 51.2975 16.0649C51.2975 16.8659 51.5208 17.5028 51.9672 17.9756ZM66.5817 25.2639C64.6907 25.2639 63.2199 25.0603 62.1693 24.6533V21.6985C63.4957 22.2238 64.7563 22.4865 65.9514 22.4865C66.9757 22.4865 67.7505 22.3289 68.2757 22.0137C68.801 21.6985 69.0637 21.1798 69.0637 20.4576V19.8075C68.4202 20.5954 67.4353 20.9894 66.1089 20.9894C64.5594 20.9894 63.3184 20.497 62.386 19.512C61.4536 18.5271 60.9874 17.2533 60.9874 15.6906C60.9874 14.141 61.4471 12.8672 62.3663 11.8692C63.2856 10.8711 64.4871 10.3721 65.9711 10.3721C67.258 10.3721 68.2626 10.7267 68.9849 11.4358V10.6676H72.3336V19.0787C72.3336 20.0242 72.2416 20.8515 72.0578 21.5606C71.8739 22.2829 71.5719 22.9264 71.1517 23.4911C70.7314 24.0689 70.1339 24.5088 69.3591 24.8108C68.5975 25.1129 67.6717 25.2639 66.5817 25.2639ZM66.9757 18.0347C67.9606 18.0347 68.6566 17.6342 69.0637 16.8331V14.489C68.8667 14.1213 68.5712 13.839 68.1772 13.642C67.7833 13.4319 67.3565 13.3268 66.8969 13.3268C66.1877 13.3268 65.6099 13.5435 65.1634 13.9769C64.7169 14.4102 64.4937 14.9749 64.4937 15.6709C64.4937 16.3538 64.7169 16.9185 65.1634 17.365C65.6099 17.8114 66.214 18.0347 66.9757 18.0347ZM79.941 21.7182C78.1157 21.7182 76.658 21.2126 75.568 20.2015C74.4912 19.1772 73.9528 17.7983 73.9528 16.0649C73.9528 14.3314 74.4978 12.9526 75.5877 11.9283C76.6777 10.904 78.1288 10.3918 79.941 10.3918C81.7532 10.3918 83.1978 10.904 84.2746 11.9283C85.3646 12.9526 85.9096 14.3314 85.9096 16.0649C85.9096 17.7983 85.3646 19.1772 84.2746 20.2015C83.1978 21.2126 81.7532 21.7182 79.941 21.7182ZM78.1288 17.9756C78.5884 18.4352 79.1925 18.665 79.941 18.665C80.6896 18.665 81.2871 18.4286 81.7336 17.9559C82.18 17.4831 82.4033 16.8528 82.4033 16.0649C82.4033 15.277 82.1735 14.6466 81.7139 14.1739C81.2674 13.688 80.6764 13.445 79.941 13.445C79.1925 13.445 78.5884 13.688 78.1288 14.1739C77.6823 14.6466 77.4591 15.277 77.4591 16.0649C77.4591 16.8659 77.6823 17.5028 78.1288 17.9756Z" fill="white"/>
<path fill-rule="evenodd" clip-rule="evenodd" d="M6.56592 14.7737C6.56592 10.2431 10.2347 6.56616 14.7735 6.56616C19.304 6.56616 22.981 10.2431 22.981 14.7737C22.981 19.3125 19.304 22.9813 14.7735 22.9813C10.2347 22.9813 6.56592 19.3125 6.56592 14.7737ZM16.6038 16.2757L17.9334 12.0735C18.0237 11.7862 17.761 11.5154 17.4738 11.6057L13.2715 12.9189C13.0991 12.9763 12.9596 13.1076 12.9104 13.28L11.5972 17.4905C11.5069 17.7695 11.7777 18.0404 12.0568 17.9501L16.2426 16.6369C16.415 16.5876 16.5545 16.4481 16.6038 16.2757Z" fill="#006A64"/>
</svg>
